# Aspose.3D Wavefront OBJ Exporter
# Copyright 2004-2025 Aspose Pty Ltd.
# File created: 03/20/2025 05:44:14

mtllib material.lib
g Object_3

#
# object Object_3
#

v -150 1537.7446 150.00005
v 150 1537.7446 150.00005
v 150 1837.7446 150.00005
v -150 1837.7446 150.00005
v -150 1837.7446 150.00005
v 150 1837.7446 150.00005
v 150 1837.7446 -150.00005
v -150 1837.7446 -150.00005
v -150 1837.7446 -150.00005
v 150 1837.7446 -150.00005
v 150 1537.7446 -150.00005
v -150 1537.7446 -150.00005
v -150 1537.7446 -150.00005
v 150 1537.7446 -150.00005
v 150 1537.7446 150.00005
v -150 1537.7446 150.00005
v 150 1537.7446 150.00005
v 150 1537.7446 -150.00005
v 150 1837.7446 -150.00005
v 150 1837.7446 150.00005
v -150 1537.7446 -150.00005
v -150 1537.7446 150.00005
v -150 1837.7446 150.00005
v -150 1837.7446 -150.00005
# 24 vertices

vn 0 -2.220446E-16 1
vn 0 -2.220446E-16 1
vn 0 -2.220446E-16 1
vn 0 -2.220446E-16 1
vn 0 1 2.220446E-16
vn 0 1 2.220446E-16
vn 0 1 2.220446E-16
vn 0 1 2.220446E-16
vn 0 2.220446E-16 -1
vn 0 2.220446E-16 -1
vn 0 2.220446E-16 -1
vn 0 2.220446E-16 -1
vn 0 -1 -2.220446E-16
vn 0 -1 -2.220446E-16
vn 0 -1 -2.220446E-16
vn 0 -1 -2.220446E-16
vn 1 0 0
vn 1 0 0
vn 1 0 0
vn 1 0 0
vn -1 0 0
vn -1 0 0
vn -1 0 0
vn -1 0 0
# 24 vertex normals

usemtl Scene___Root
s 1
f 1//1 2//2 3//3
f 1//1 3//3 4//4
f 5//5 6//6 7//7
f 5//5 7//7 8//8
f 9//9 10//10 11//11
f 9//9 11//11 12//12
f 13//13 14//14 15//15
f 13//13 15//15 16//16
f 17//17 18//18 19//19
f 17//17 19//19 20//20
f 21//21 22//22 23//23
f 21//21 23//23 24//24
#12 polygons

